<?xml version="1.0" standalone="no"?>
<!DOCTYPE svg PUBLIC "-//W3C//DTD SVG 20010904//EN"
 "http://www.w3.org/TR/2001/REC-SVG-20010904/DTD/svg10.dtd">
<svg version="1.0" xmlns="http://www.w3.org/2000/svg"
 width="1024.000000pt" height="1024.000000pt" viewBox="0 0 1024.000000 1024.000000"
 preserveAspectRatio="xMidYMid meet">
<metadata>
Created by potrace 1.11, written by Peter Selinger 2001-2013
</metadata>
<g transform="translate(0.000000,1024.000000) scale(0.100000,-0.100000)"
fill="#000000" stroke="none">
<path d="M0 7855 c0 -1954 2 -2385 13 -2385 7 0 106 93 220 208 113 114 443
446 732 737 290 292 1010 1016 1600 1610 590 594 1321 1330 1624 1635 303 305
551 560 551 567 0 11 -438 13 -2370 13 l-2370 0 0 -2385z"/>
<path d="M4960 10227 c0 -7 -266 -280 -591 -607 -325 -327 -1104 -1112 -1732
-1743 -628 -632 -1362 -1370 -1630 -1640 -269 -271 -599 -603 -734 -739 -136
-137 -252 -248 -260 -248 -11 0 -13 -176 -13 -1015 l0 -1015 24 0 c14 0 30
-10 39 -22 8 -13 320 -330 693 -705 374 -375 846 -851 1051 -1057 249 -251
383 -380 408 -390 32 -14 159 -16 987 -16 983 -1 967 -2 968 36 0 6 -249 262
-552 567 -1667 1676 -2579 2596 -2607 2628 -21 25 -36 59 -48 107 -15 62 -15
77 -3 129 12 49 23 67 71 115 68 69 141 96 208 79 23 -6 59 -16 81 -21 46 -12
-112 143 1716 -1696 628 -632 1288 -1296 1467 -1476 286 -287 327 -332 332
-365 12 -66 16 -75 51 -89 52 -22 1640 -20 1703 2 37 12 104 76 410 384 201
203 852 858 1446 1455 594 598 1234 1242 1421 1431 188 189 349 344 358 344
15 0 16 94 16 1070 0 865 -2 1070 -13 1070 -7 0 -152 141 -323 313 -462 465
-1819 1831 -2484 2500 -322 323 -588 597 -592 608 -7 19 -25 19 -938 19 -750
0 -930 -2 -930 -13z m2216 -2623 c88 -20 183 -59 206 -84 10 -11 31 -23 46
-26 113 -27 271 -242 323 -439 31 -115 20 -263 -26 -355 -12 -25 -25 -58 -29
-74 -10 -41 -73 -122 -179 -228 -114 -115 -173 -163 -211 -172 -17 -4 -42 -16
-57 -27 -15 -10 -30 -19 -34 -19 -4 0 -26 -8 -49 -19 -94 -43 -156 -62 -236
-72 -178 -22 -242 -47 -294 -115 -53 -69 -47 -116 38 -304 30 -66 57 -134 61
-152 4 -18 16 -49 26 -68 10 -19 25 -71 34 -115 9 -44 21 -98 27 -120 7 -22
12 -83 12 -135 -1 -83 -5 -105 -32 -176 -27 -68 -43 -92 -103 -152 -41 -41
-86 -76 -107 -84 -22 -8 -78 -13 -137 -12 -98 1 -102 1 -195 47 -52 26 -122
67 -155 92 -33 24 -69 49 -81 54 -76 34 -190 135 -484 430 -343 343 -421 428
-484 526 -21 33 -47 71 -57 85 -11 14 -26 39 -35 55 -9 17 -24 39 -34 50 -18
20 -93 198 -104 246 -11 50 11 162 46 234 25 52 46 79 83 107 28 21 59 38 70
38 12 0 39 9 60 20 66 34 155 40 272 19 57 -10 112 -23 122 -29 11 -5 36 -10
56 -10 20 0 53 -9 75 -20 22 -11 47 -20 57 -20 24 0 181 -56 198 -70 18 -15
164 -60 195 -60 14 0 44 9 68 20 48 22 75 68 92 160 5 28 12 55 15 60 3 5 10
43 15 85 5 42 21 104 36 138 14 34 32 84 39 111 8 27 23 58 33 70 11 11 38 55
60 96 32 58 67 101 154 185 137 134 222 183 383 225 88 23 136 24 221 4z
m-4529 -1605 c76 -35 -37 75 2012 -1985 1483 -1491 1451 -1457 1494 -1543 35
-69 37 -80 31 -130 -3 -31 -18 -76 -32 -101 -35 -61 -109 -131 -152 -141 -47
-12 -133 -11 -164 1 -14 5 -159 144 -323 309 -164 165 -696 701 -1183 1191
-1755 1767 -2001 2015 -2024 2040 -32 34 -39 71 -30 158 6 66 10 79 40 110 19
20 34 39 34 43 0 7 76 55 110 71 39 18 120 8 187 -23z m-684 -658 c24 -11 66
-43 93 -71 27 -29 310 -315 629 -636 319 -321 1008 -1013 1530 -1539 523 -526
1023 -1029 1112 -1118 176 -175 193 -202 193 -299 0 -64 -29 -120 -95 -184
-68 -66 -121 -82 -203 -64 -87 19 -158 64 -251 159 -86 88 -837 845 -2260
2276 -904 910 -1026 1035 -1059 1090 -34 56 -46 134 -31 202 30 149 205 243
342 184z"/>
<path d="M2454 5857 c-50 -46 -58 -107 -21 -170 25 -42 797 -824 2622 -2654
721 -723 793 -793 830 -799 50 -9 112 12 137 47 11 14 22 44 25 67 7 52 -20
97 -111 188 -127 127 -2302 2317 -2776 2795 -272 275 -515 513 -540 529 -64
42 -118 41 -166 -3z"/>
<path d="M1809 5207 c-46 -41 -59 -66 -59 -116 0 -78 -114 45 1118 -1196 393
-396 1074 -1081 1514 -1521 867 -870 822 -830 906 -803 111 36 131 100 66 206
-11 18 -610 625 -1330 1349 -720 724 -1470 1480 -1667 1680 -288 292 -371 370
-422 399 -35 19 -69 35 -77 35 -7 -1 -29 -15 -49 -33z"/>
<path d="M7052 10225 c3 -16 246 -262 1941 -1967 671 -676 1226 -1228 1234
-1228 11 0 13 272 13 1605 l0 1605 -1596 0 c-1389 0 -1595 -2 -1592 -15z"/>
<path d="M1164 4546 c-25 -14 -48 -38 -64 -68 -24 -46 -24 -46 -6 -86 12 -27
144 -167 408 -434 732 -739 2803 -2821 2846 -2862 62 -58 111 -74 226 -72 77
1 98 5 115 20 12 11 21 25 21 33 0 17 123 -109 -1348 1371 -664 668 -1398
1408 -1632 1644 -233 237 -437 436 -452 444 -62 32 -73 33 -114 10z"/>
<path d="M9877 4115 c-1279 -1288 -2050 -2064 -2499 -2515 -318 -319 -518
-527 -518 -539 0 -10 6 -21 13 -23 6 -2 767 -2 1690 0 l1677 4 0 1709 c0 1161
-3 1709 -10 1709 -6 0 -165 -155 -353 -345z"/>
<path d="M0 2032 l0 -989 960 -6 c529 -3 968 -3 975 0 41 15 10 53 -309 373
-313 313 -1234 1241 -1480 1489 -66 67 -125 121 -133 121 -11 0 -13 -169 -13
-988z"/>
</g>
</svg>
